PathFileType	4	(X/Y/Z)	SUBJ26_1_walk_RCNL2025.trc
DataRate	CameraRate	NumFrames	NumMarkers	Units	OrigDataRate	OrigDataStartFrame	OrigNumFrames
100	100	11	25	mm	100	97	385
Frame#	Time	R_Shoulder			L_Shoulder			C7			J_Notch			R_Elbow			L_Elbow			R_Wrist			L_Wrist			R_Asis			L_Asis			Sacral			Thoracic			Sternum			R_Thigh_Lateral			R_Knee_Lateral			R_Shank_Lateral			R_Ankle_Lateral			R_Heel			R_Toe			L_Thigh_Lateral			L_Knee_Lateral			L_Shank_Lateral			L_Ankle_Lateral			L_Heel			L_Toe		
		X1	Y1	Z1	X2	Y2	Z2	X3	Y3	Z3	X4	Y4	Z4	X5	Y5	Z5	X6	Y6	Z6	X7	Y7	Z7	X8	Y8	Z8	X9	Y9	Z9	X10	Y10	Z10	X11	Y11	Z11	X12	Y12	Z12	X13	Y13	Z13	X14	Y14	Z14	X15	Y15	Z15	X16	Y16	Z16	X17	Y17	Z17	X18	Y18	Z18	X19	Y19	Z19	X20	Y20	Z20	X21	Y21	Z21	X22	Y22	Z22	X23	Y23	Z23	X24	Y24	Z24	X25	Y25	Z25
97	0.96000000	-1614.296631	1312.118042	270.532562	-1618.914917	1313.498535	-66.700790	-1697.730103	1376.823364	110.983467	-1554.478516	1273.005249	96.968964	-1735.411987	1007.727173	366.422699	-1647.430176	991.622803	-169.933624	-1699.321472	757.370453	371.518494	-1517.425354	782.598663	-191.091934	-1592.905640	900.390503	238.744537	-1615.078979	915.577332	-64.978760	-1807.655762	920.566223	104.994987	-1786.526001	1033.442749	105.204094	-1521.872803	1013.215210	109.268776	-1603.050537	570.723694	297.723694	-1536.569824	440.982819	250.863098	-1608.306885	313.107941	284.259399	-1716.249756	105.672867	199.336243	-1764.998901	113.937210	134.912033	-1609.074585	52.647995	182.090103	-1662.459351	600.032471	-93.865326	-1674.727051	431.639465	-10.901665	-1697.868896	251.589630	-71.192123	-1737.702271	49.949860	19.760542	-1804.846680	32.509838	65.328087	-1623.932983	35.260548	67.971954
98	0.97000000	-1602.819702	1311.594604	271.346497	-1605.608398	1313.122192	-65.840614	-1685.118896	1376.267212	111.271217	-1542.125610	1272.265503	98.087006	-1725.041748	1007.125549	365.993530	-1629.577271	991.722839	-170.326569	-1689.424561	756.712585	370.761887	-1493.678589	786.396240	-190.315895	-1580.474243	900.233398	238.290573	-1603.607422	914.785156	-65.255730	-1795.680054	920.087891	105.836700	-1774.412964	1033.037964	105.310135	-1509.790894	1012.619751	109.976524	-1584.956665	571.532104	296.878693	-1515.366089	443.129791	250.056274	-1580.327148	311.661407	284.919769	-1674.647705	96.618622	202.419083	-1724.188843	100.836784	138.057373	-1564.145630	51.088573	185.565796	-1654.186157	599.472107	-93.195770	-1671.259766	431.503601	-10.420377	-1695.937744	251.374329	-70.781677	-1737.504150	50.080997	19.982313	-1804.886108	32.798962	65.406303	-1623.667480	35.110458	68.300209
99	0.98000000	-1591.338257	1310.756836	272.174042	-1592.274170	1312.459717	-64.928825	-1672.505737	1375.480713	111.586273	-1529.764282	1271.314941	99.215424	-1714.541138	1006.255554	365.671143	-1611.777222	991.640991	-170.644226	-1679.257507	755.804016	370.182327	-1470.204651	790.149536	-189.409737	-1567.910400	899.792480	237.866928	-1592.045654	913.747009	-65.612587	-1783.610718	919.398071	106.750359	-1762.243042	1032.407471	105.555931	-1497.623901	1011.870728	110.659225	-1567.372192	572.107056	295.948639	-1495.212036	444.963226	249.165115	-1552.720703	310.109863	285.623199	-1632.218140	88.034142	205.563431	-1682.342651	88.256424	141.374435	-1518.881714	50.170406	188.757065	-1646.206787	598.828796	-92.584106	-1667.810425	431.397186	-9.976552	-1694.097412	251.208527	-70.435135	-1737.340454	50.250137	20.182041	-1804.933472	33.162743	65.491875	-1623.474609	34.981949	68.564682
100	0.99000000	-1579.820435	1309.624756	273.015259	-1578.910645	1311.522217	-63.956299	-1659.888916	1374.474487	111.939842	-1517.385254	1270.160522	100.342194	-1703.895020	1005.133179	365.460571	-1594.042114	991.395935	-170.880722	-1668.819458	754.658264	369.765839	-1447.008362	793.847900	-188.368828	-1555.220093	899.058594	237.490738	-1580.452759	912.489563	-65.981148	-1771.434692	918.517029	107.728218	-1750.008301	1031.558472	105.945366	-1485.377319	1010.971558	111.337662	-1550.411499	572.380615	294.899811	-1476.130981	446.422882	248.207367	-1525.461670	308.438019	286.348999	-1589.172363	80.172104	208.649536	-1639.611572	76.502686	144.698639	-1473.503662	49.997803	191.630997	-1638.557983	598.135254	-92.069000	-1664.383667	431.334808	-9.580086	-1692.382446	251.133133	-70.157471	-1737.216553	50.476746	20.373642	-1804.978394	33.631844	65.604408	-1623.396606	34.888573	68.749184
101	1.00000000	-1568.233276	1308.227661	273.869446	-1565.519897	1310.329590	-62.915451	-1647.269775	1373.259644	112.341805	-1504.973999	1268.807251	101.462151	-1693.087280	1003.780762	365.366241	-1576.398193	991.009827	-171.032486	-1658.109009	753.295319	369.497589	-1424.093384	797.482483	-187.190460	-1542.406860	898.031250	237.169266	-1568.838989	911.057678	-66.312469	-1759.141357	917.458618	108.764847	-1737.702026	1030.497070	106.476181	-1473.054688	1009.917236	112.032806	-1534.163452	572.294861	293.730194	-1458.086548	447.456055	247.206650	-1498.535278	306.656860	287.065491	-1545.810669	73.265060	211.557617	-1596.253418	65.869553	147.860062	-1428.307373	50.636383	194.178268	-1631.255493	597.420166	-91.673164	-1660.951538	431.325409	-9.227655	-1690.780029	251.178329	-69.933273	-1737.131348	50.785992	20.582241	-1805.007324	34.242058	65.777245	-1623.442627	34.835499	68.857590
102	1.01000000	-1556.545654	1306.600586	274.735809	-1552.109497	1308.910156	-61.802540	-1634.649902	1371.849609	112.801903	-1492.515503	1267.262817	102.573624	-1682.100586	1002.224670	365.392639	-1558.881958	990.504089	-171.098969	-1647.125610	751.740112	369.365067	-1401.469971	801.045135	-185.875549	-1529.472900	896.719849	236.905273	-1557.184448	909.502930	-66.573280	-1746.722656	916.231201	109.855927	-1725.318115	1029.231323	107.140831	-1460.656372	1008.698730	112.763428	-1518.675293	571.808899	292.485535	-1440.982056	448.025177	246.189026	-1471.969727	304.809143	287.728699	-1502.525269	67.500519	214.179123	-1552.665649	56.615688	150.702621	-1383.664185	52.105324	196.415710	-1624.289551	596.713684	-91.404999	-1657.449341	431.372009	-8.905617	-1689.229248	251.357208	-69.730438	-1737.076538	51.206802	20.839081	-1805.005737	35.032658	66.053925	-1623.571289	34.813530	68.916550
103	1.02000000	-1544.731445	1304.780762	275.614502	-1538.691528	1307.298218	-60.619358	-1622.029541	1370.261353	113.330162	-1480.000488	1265.543945	103.676003	-1670.918335	1000.492981	365.544983	-1541.534912	989.897400	-171.081299	-1635.867554	750.019287	369.361069	-1379.163269	804.525787	-184.429047	-1516.419189	895.143982	236.698654	-1545.454468	907.875610	-66.742714	-1734.173340	914.840210	110.996613	-1712.850342	1027.772339	107.928047	-1448.177002	1007.309631	113.545540	-1503.940796	570.902588	291.264130	-1424.674316	448.115265	245.176651	-1445.870239	302.965790	288.281494	-1459.788574	62.995041	216.425507	-1509.364868	48.927914	153.099930	-1340.005615	54.374123	198.375793	-1617.613892	596.046448	-91.259178	-1653.778564	431.471008	-8.593268	-1687.634644	251.668579	-69.509674	-1737.037842	51.768848	21.174204	-1804.959229	36.044174	66.478432	-1623.715698	34.808544	68.960983
104	1.03000000	-1532.770630	1302.801758	276.508240	-1525.280518	1305.532227	-59.373203	-1609.407104	1368.516724	113.936470	-1467.423828	1263.676514	104.772476	-1659.525757	998.613525	365.828339	-1524.397827	989.204773	-170.980316	-1624.330383	748.158936	369.485718	-1357.219360	807.911835	-182.859222	-1503.247070	893.332092	236.545547	-1533.612427	906.219604	-66.810524	-1721.489868	913.290405	112.180267	-1700.290771	1026.134766	108.824707	-1435.604980	1005.750854	114.389992	-1489.898438	569.572571	290.200165	-1408.995728	447.738190	244.183731	-1420.435303	301.206970	288.653961	-1418.131226	59.775249	218.234329	-1466.930054	42.883015	154.957245	-1297.796753	57.359005	200.088257	-1611.136353	595.444641	-91.216560	-1649.819580	431.613007	-8.267965	-1685.889282	252.104446	-69.236542	-1736.995728	52.498585	21.608170	-1804.854492	37.315292	67.081161	-1623.821411	34.813030	69.017273
105	1.04000000	-1520.648193	1300.693848	277.422546	-1511.889648	1303.652954	-58.075317	-1596.777466	1366.642456	114.630531	-1454.781006	1261.694214	105.869522	-1647.910767	996.612122	366.247162	-1507.506104	988.438049	-170.795898	-1612.509583	746.183868	369.744537	-1335.700378	811.190918	-181.176155	-1489.958496	891.321106	236.442062	-1521.627075	904.570251	-66.775909	-1708.666504	911.588318	113.398376	-1687.628174	1024.336304	109.817322	-1422.925171	1004.032776	115.300125	-1476.446655	567.820129	289.422455	-1393.778564	446.931610	243.214569	-1395.943481	299.592651	288.773102	-1378.109497	57.770420	219.569672	-1425.956055	38.429947	156.207764	-1257.511108	60.918003	201.566010	-1604.719971	594.924011	-91.246490	-1645.450806	431.785034	-7.912509	-1683.899170	252.655914	-68.892677	-1736.925171	53.415382	22.143764	-1804.680786	38.878605	67.863548	-1623.855835	34.826637	69.097878
106	1.05000000	-1508.356201	1298.488770	278.364502	-1498.530151	1301.703735	-56.738373	-1584.132568	1364.669678	115.422264	-1442.070312	1259.639160	106.972198	-1636.061890	994.512268	366.805511	-1490.887939	987.606873	-170.527374	-1600.405090	744.117279	370.143219	-1314.675110	814.354004	-179.390884	-1476.554810	889.159119	236.395157	-1509.474976	902.953125	-66.646149	-1695.692505	909.744202	114.641884	-1674.845825	1022.397583	110.892685	-1410.122925	1002.177795	116.272652	-1463.475952	565.637756	288.997162	-1378.872559	445.752197	242.261597	-1372.706055	298.134460	288.578735	-1340.268188	56.814621	220.413208	-1387.023071	35.398884	156.814438	-1219.607422	64.849182	202.799973	-1598.197266	594.486267	-91.313057	-1640.567139	431.972717	-7.521969	-1681.603394	253.317017	-68.483810	-1736.792969	54.530807	22.759462	-1804.427856	40.757172	68.787498	-1623.803345	34.851982	69.202171
107	1.06000000	-1495.897705	1296.219604	279.343048	-1485.209839	1299.728882	-55.373230	-1571.462280	1362.631714	116.321510	-1429.288696	1257.557983	108.083565	-1623.968384	992.336365	367.507111	-1474.564331	986.721741	-170.174164	-1588.020752	741.980652	370.684372	-1294.214355	817.392090	-177.516724	-1463.035889	886.906189	236.429245	-1497.140015	901.384705	-66.433510	-1682.550781	907.773865	115.902420	-1661.923096	1020.343384	112.038010	-1397.186523	1000.222717	117.299736	-1450.898804	563.014099	288.885040	-1364.157959	444.266083	241.303619	-1350.993164	296.781281	288.031799	-1305.101318	56.657799	220.750397	-1350.670898	33.529160	156.770905	-1184.501465	68.891891	203.759033	-1591.390503	594.118225	-91.383278	-1635.090942	432.162201	-7.107735	-1678.975342	254.086807	-68.042000	-1736.560425	55.852489	23.407442	-1804.084351	42.964550	69.776817	-1623.660156	34.892052	69.318871
